<svg version="1.0" xmlns="http://www.w3.org/2000/svg" xmlns:xlink="http://www.w3.org/1999/xlink" x="0px" y="0px" width="512px" height="512px" viewBox="0 0 512 512" enable-background="new 0 0 512 512" xml:space="preserve">
    <path fill="#8451A1" d="M512,477c0,19.33-19.375,33.089-42.881,30.771L28.48,464.309C12.655,462.748,0,448.921,0,433.404V78.596
        c0-15.517,12.655-29.344,28.48-30.905L469.119,4.229C492.625,1.911,512,15.67,512,35V477z"/>
    <g>
        <path fill="#FFFFFF" d="M124.355,134.754h89.487c20.18,0,35.563,1.545,46.149,4.631c14.225,4.192,26.408,11.635,36.556,22.33
            c10.144,10.698,17.864,23.793,23.157,39.285c5.293,15.494,7.939,34.599,7.939,57.314c0,19.96-2.481,37.163-7.443,51.608
            c-6.066,17.645-14.722,31.924-25.97,42.842c-8.492,8.27-19.96,14.721-34.405,19.352c-10.808,3.42-25.253,5.129-43.337,5.129
            h-92.134V134.754z M173.317,175.776v160.613h36.556c13.672,0,23.542-0.77,29.608-2.314c7.939-1.986,14.527-5.348,19.766-10.09
            c5.236-4.74,9.512-12.543,12.819-23.406c3.309-10.861,4.963-25.665,4.963-44.413c0-18.746-1.654-33.136-4.963-43.172
            c-3.308-10.033-7.939-17.864-13.895-23.488c-5.954-5.624-13.509-9.428-22.66-11.413c-6.839-1.543-20.237-2.316-40.195-2.316
            H173.317z"/>
    </g>
    <path fill="#78458E" d="M469.119,4.229L424.5,8.63v494.739l44.619,4.401C492.625,510.089,512,496.33,512,477V35
	C512,15.67,492.625,1.911,469.119,4.229z"/>
</svg>
